<svg id="Layer_1" data-name="Layer 1" xmlns="http://www.w3.org/2000/svg" viewBox="0 0 1080 1080"><defs><style>.cls-1{fill:#476db3;}.cls-2{fill:#212121;}</style></defs><path class="cls-1" d="M780.82,377.11,466.23,497.39,293.32,417.91c162.5-18.45,325-29.31,487.26-42Z"/><path class="cls-1" d="M398.44,355.45V268.78c116.4,32.8,233.26,62.46,348.37,98.56-18.68,2.05-37.36,4.19-56,6.14-34.44,3.59-68.89,7.2-103.35,10.53-24.86,2.4-49.88,3.51-74.6,6.85-14.62,2-27.34-1.25-40.45-6.59-23-9.35-46.23-17.95-69.36-26.88C401.46,356.8,400,356.11,398.44,355.45Z"/><path class="cls-1" d="M765.33,394c-1.34,1.65-2.42,3.64-4.05,4.91-38.17,29.87-76.21,59.91-114.66,89.41C595.09,527.85,543.23,567,491.5,606.23c-4.36,3.31-8.84,6.46-14,10.19V524.47c6.23-2.94,12.19-5.85,18.23-8.58Q620.42,459.52,745.1,403.2c6.81-3.08,13.59-6.2,20.39-9.3Z"/><path class="cls-2" d="M768.21,736.73H751.85c-5.7-18-11.34-35.92-17.14-54.27h15.67c3.26,10.95,6.63,22.32,10,33.69l1.09.08c3.34-11.17,6.67-22.34,10.11-33.85h14.69l10.22,34.19,1-.07c3.3-11.4,6.61-22.8,9.94-34.3H822.2l-17.37,54.45h-16l-10.29-34.24C774.8,714.76,771.54,725.65,768.21,736.73Z"/><path class="cls-1" d="M470.42,526.05l-70.37,35.59V487.76Z"/><path class="cls-2" d="M478,682.23h14.43v54.34H478.84c-7.72-9.42-15.83-19.3-24.92-30.37v30.43H439.19V682.39h13.54L478,713.82Z"/><path class="cls-2" d="M697.07,714.88v9.76h28.76v12.14H682.08v-54.4h42.64v11.73H697.14v9.2h24.49v11.57Z"/><path class="cls-2" d="M524.15,724.8h28.53v11.94H509.19V682.4h42.54V694h-27.6v9.38h24.46V715H524.15Z"/><path class="cls-2" d="M428.8,736.71H412.93c-1.35-3.12-2.79-6.42-4.2-9.69H385.44c-1.39,3.34-2.72,6.53-4,9.65H366c7.89-18.35,15.56-36.18,23.32-54.24h15.85C412.82,700,420.62,718,428.8,736.71Zm-31.74-38.62c-2.54,6.27-4.67,11.5-6.88,16.93h14Z"/><path class="cls-2" d="M257.8,681.42c11.48.68,22.63.58,33.52,2.21,9.44,1.42,14.08,8,14.45,17.12.41,10-4,16.8-13.31,19.81a45.22,45.22,0,0,1-9.76,1.76c-3.1.29-6.24.06-9.88.06v14.2h-15Zm15.22,13v15.48c3.75,0,7.25.26,10.68-.06,4.78-.45,7.37-3.51,7.24-7.89s-2.87-7.17-7.71-7.49C280,694.23,276.66,694.4,273,694.4Z"/><path class="cls-2" d="M618.51,736.77h-16c-7.29-17.94-14.58-35.89-22.11-54.41h16.23c4.69,11.68,9.43,23.5,14.55,36.24,5-12.58,9.73-24.32,14.47-36.19h15.21Z"/><path class="cls-2" d="M319,682.3h14.62v42.07h25.9v12.28H319Z"/><path class="cls-2" d="M665.35,736.67H651V682.41h14.35Z"/><path class="cls-2" d="M417.27,792.36c.09,10.47-7.86,18.84-17.89,18.86a18.77,18.77,0,0,1-18.44-18.07,18.26,18.26,0,0,1,18.14-18.63A17.63,17.63,0,0,1,417.27,792.36Zm-18-11.35c-6.31,0-11.13,5-11.19,11.58s5.17,12.37,11.15,12.48,11.37-5.89,11.22-12.33S405.27,781,399.27,781Z"/><path class="cls-2" d="M520.48,795.68v8.62H539c.18,2.1.33,3.81.53,6H513.35v-35h25.4V781H520.38v8.51h16.28v6.2Z"/><path class="cls-2" d="M740.84,804.13v6.37H715V775.21h25.19c.1,1.58.2,3.29.34,5.64H722v8.73h16.18c.15,2.12.26,3.7.42,6H721.9v8.5Z"/><path class="cls-2" d="M582.06,800l4.17,3.63c-6.81,8.75-18.57,10-26.13,3.08-7.86-7.21-8.34-19.69-1-26.78,8-7.71,19.88-7.18,27.2,1.66-1.43,1.2-2.88,2.41-4.26,3.58-7.46-5.18-14.06-5.28-18.14-.47a12.59,12.59,0,0,0,.31,16.48C568.75,806,574.71,805.75,582.06,800Z"/><path class="cls-2" d="M367.72,781.78l-3.09,2.52c-4.78-1.19-8.74-2.81-12.75-2.93-2.19-.06-4.95,2-6.58,3.81-3.88,4.41-3.29,11.79.76,16,4.6,4.84,10.11,4.53,17.54-1.2l4.37,3.74c-7.19,8.84-19.4,9.74-27,2.24a18.46,18.46,0,0,1,.53-26.76C349.54,772.11,361.32,773.07,367.72,781.78Z"/><path class="cls-2" d="M686.37,810.45H680c-4.5-11.44-9-22.94-13.88-35.28l7.24-.32,9.87,25.8,9.94-25.6h6.9Z"/><path class="cls-2" d="M628.22,775.15V781H617.67v29.34h-7V781.57l-11-.62v-5.8Z"/><path class="cls-2" d="M457.74,810.5H434.09V775.19h6.73v29.33h16.52C457.49,806.69,457.59,808.29,457.74,810.5Z"/><path class="cls-2" d="M473.61,775.18H480v29.28h16.82c.11,2.18.2,3.89.31,6H473.61Z"/><path class="cls-2" d="M644.52,775h6.29v35.24h-6.29Z"/><path class="cls-1" d="M765.49,393.9v.27l-.17-.17Z"/></svg>